<?xml version="1.0" encoding="utf-8"?>
<!-- Generator: Adobe Illustrator 22.0.1, SVG Export Plug-In . SVG Version: 6.00 Build 0)  -->
<svg version="1.1" id="レイヤー_1" xmlns="http://www.w3.org/2000/svg" xmlns:xlink="http://www.w3.org/1999/xlink" x="0px"
	 y="0px" viewBox="0 0 1920 676" style="enable-background:new 0 0 1920 676;" xml:space="preserve">
<style type="text/css">
	.st0{fill:#DC1226;}
</style>
<g>
	<polygon class="st0" points="1340.7,0 1340.7,675.9 1920,338 	"/>
	<polygon points="579.3,220.7 579.3,0.1 0,338.1 579.3,676 579.3,455.5 471.2,392.4 471.2,502 197.4,342.2 471.2,182.5 471.2,283.7 
			"/>
	<g>
		<polygon points="850,502 583.5,346.5 583.5,457.5 958.1,676 958.1,455.5 850,392.4 		"/>
		<polygon points="583.5,218.6 583.5,338 850,182.5 850,283.7 958.1,220.7 958.1,0.1 		"/>
	</g>
	<g>
		<polygon points="1228.7,502 962.3,346.5 962.3,457.5 1336.9,676 1336.9,455.5 1228.7,392.4 		"/>
		<polygon points="962.3,218.6 962.3,338 1228.7,182.5 1228.7,283.7 1336.9,220.7 1336.9,0.1 		"/>
	</g>
</g>
</svg>
